<svg xmlns="http://www.w3.org/2000/svg" viewBox="0 0 1200 750" role="img" aria-labelledby="title desc">
  <title id="title">Children's companionship and support</title>
  <desc id="desc">A warm illustration of a supportive adult sharing a creative activity with two children.</desc>
  <rect width="1200" height="750" fill="#E8F3F6"/>
  <circle cx="1020" cy="120" r="170" fill="#A1CEDC" opacity=".45"/>
  <circle cx="170" cy="650" r="210" fill="#072D5A" opacity=".08"/>
  <path d="M120 570c190-86 320-82 480 0s310 86 480 0v180H120Z" fill="#A1CEDC" opacity=".5"/>
  <rect x="380" y="475" width="440" height="24" rx="12" fill="#072D5A" opacity=".2"/>
  <rect x="480" y="340" width="240" height="140" rx="18" fill="#fff"/>
  <path d="M505 445h190" stroke="#A1CEDC" stroke-width="18" stroke-linecap="round"/>
  <path d="m535 385 30 30 45-55 40 42 38-30 35 42" fill="none" stroke="#287496" stroke-width="14" stroke-linecap="round" stroke-linejoin="round"/>
  <circle cx="380" cy="278" r="48" fill="#A1CEDC"/>
  <path d="M305 470c0-91 34-145 75-145s75 54 75 145Z" fill="#072D5A"/>
  <path d="M338 228c22-42 78-43 101-2-17-12-31-16-50-12-18-9-34-5-51 14Z" fill="#124578"/>
  <circle cx="380" cy="279" r="5" fill="#072D5A"/><circle cx="412" cy="279" r="5" fill="#072D5A"/>
  <path d="M379 302c12 8 25 8 37 0" fill="none" stroke="#072D5A" stroke-width="5" stroke-linecap="round"/>
  <circle cx="690" cy="245" r="42" fill="#D2E8ED"/>
  <path d="M630 470c0-90 27-145 60-145s60 55 60 145Z" fill="#287496"/>
  <path d="M655 207c23-31 62-28 79 4-24-12-51-11-79-4Z" fill="#124578"/>
  <circle cx="677" cy="246" r="5" fill="#072D5A"/><circle cx="704" cy="246" r="5" fill="#072D5A"/>
  <path d="M677 269c9 7 19 7 28 0" fill="none" stroke="#072D5A" stroke-width="4" stroke-linecap="round"/>
  <circle cx="845" cy="320" r="36" fill="#A1CEDC"/>
  <path d="M795 500c0-75 23-120 50-120s50 45 50 120Z" fill="#124578"/>
  <path d="M814 291c18-28 50-26 63 2-20-9-41-10-63-2Z" fill="#072D5A"/>
  <circle cx="834" cy="320" r="4" fill="#072D5A"/><circle cx="856" cy="320" r="4" fill="#072D5A"/>
  <path d="M834 340c7 5 14 5 21 0" fill="none" stroke="#072D5A" stroke-width="4" stroke-linecap="round"/>
  <path d="M250 150h155" stroke="#fff" stroke-width="16" stroke-linecap="round" opacity=".8"/>
  <path d="M250 185h95" stroke="#fff" stroke-width="16" stroke-linecap="round" opacity=".8"/>
</svg>